<mxfile host="app.diagrams.net" modified="2023-05-28T12:54:58.058Z" agent="Mozilla/5.0 (Macintosh; Intel Mac OS X 10_15_7) AppleWebKit/537.36 (KHTML, like Gecko) Chrome/112.0.0.0 Safari/537.36" version="21.3.4" etag="NHDo8SLnb5Q8_i7eiJ7N" type="github">
  <diagram name="Page-1" id="mj5AwjszbuPZTkSFzCBo">
    <mxGraphModel>
      <root>
        <mxCell id="0" />
        <mxCell id="1" parent="0" />
      </root>
    </mxGraphModel>
  </diagram>
</mxfile>
